<mxfile host="Electron" modified="2023-05-02T14:27:03.909Z" agent="Mozilla/5.0 (Windows NT 10.0; Win64; x64) AppleWebKit/537.36 (KHTML, like Gecko) draw.io/21.2.1 Chrome/112.0.5615.87 Electron/24.1.2 Safari/537.36" etag="RsVZ-tda7-ze1WFMomkY" version="21.2.1" type="device">
  <diagram name="Page-1" id="13e1069c-82ec-6db2-03f1-153e76fe0fe0">
    <mxGraphModel dx="915" dy="690" grid="1" gridSize="10" guides="1" tooltips="1" connect="1" arrows="1" fold="1" page="1" pageScale="1" pageWidth="1100" pageHeight="850" background="none" math="0" shadow="0">
      <root>
        <mxCell id="0" />
        <mxCell id="1" parent="0" />
        <mxCell id="yub_xgJCxGsTC1WWabuT-1" value="" style="shape=umlLifeline;perimeter=lifelinePerimeter;whiteSpace=wrap;html=1;container=1;dropTarget=0;collapsible=0;recursiveResize=0;outlineConnect=0;portConstraint=eastwest;newEdgeStyle={&quot;edgeStyle&quot;:&quot;elbowEdgeStyle&quot;,&quot;elbow&quot;:&quot;vertical&quot;,&quot;curved&quot;:0,&quot;rounded&quot;:0};participant=umlActor;" vertex="1" parent="1">
          <mxGeometry x="240" y="160" width="20" height="590" as="geometry" />
        </mxCell>
        <mxCell id="yub_xgJCxGsTC1WWabuT-4" value="" style="html=1;points=[];perimeter=orthogonalPerimeter;outlineConnect=0;targetShapes=umlLifeline;portConstraint=eastwest;newEdgeStyle={&quot;edgeStyle&quot;:&quot;elbowEdgeStyle&quot;,&quot;elbow&quot;:&quot;vertical&quot;,&quot;curved&quot;:0,&quot;rounded&quot;:0};" vertex="1" parent="yub_xgJCxGsTC1WWabuT-1">
          <mxGeometry x="5" y="80" width="10" height="40" as="geometry" />
        </mxCell>
        <mxCell id="yub_xgJCxGsTC1WWabuT-32" value="" style="html=1;points=[];perimeter=orthogonalPerimeter;outlineConnect=0;targetShapes=umlLifeline;portConstraint=eastwest;newEdgeStyle={&quot;edgeStyle&quot;:&quot;elbowEdgeStyle&quot;,&quot;elbow&quot;:&quot;vertical&quot;,&quot;curved&quot;:0,&quot;rounded&quot;:0};" vertex="1" parent="yub_xgJCxGsTC1WWabuT-1">
          <mxGeometry x="5" y="350" width="10" height="80" as="geometry" />
        </mxCell>
        <mxCell id="yub_xgJCxGsTC1WWabuT-5" value="" style="shape=umlLifeline;perimeter=lifelinePerimeter;whiteSpace=wrap;html=1;container=1;dropTarget=0;collapsible=0;recursiveResize=0;outlineConnect=0;portConstraint=eastwest;newEdgeStyle={&quot;edgeStyle&quot;:&quot;elbowEdgeStyle&quot;,&quot;elbow&quot;:&quot;vertical&quot;,&quot;curved&quot;:0,&quot;rounded&quot;:0};participant=umlBoundary;" vertex="1" parent="1">
          <mxGeometry x="525" y="160" width="50" height="580" as="geometry" />
        </mxCell>
        <mxCell id="yub_xgJCxGsTC1WWabuT-28" value="" style="html=1;points=[];perimeter=orthogonalPerimeter;outlineConnect=0;targetShapes=umlLifeline;portConstraint=eastwest;newEdgeStyle={&quot;edgeStyle&quot;:&quot;elbowEdgeStyle&quot;,&quot;elbow&quot;:&quot;vertical&quot;,&quot;curved&quot;:0,&quot;rounded&quot;:0};" vertex="1" parent="yub_xgJCxGsTC1WWabuT-5">
          <mxGeometry x="18" y="170" width="15" height="80" as="geometry" />
        </mxCell>
        <mxCell id="yub_xgJCxGsTC1WWabuT-29" value="EUR" style="html=1;verticalAlign=bottom;endArrow=block;edgeStyle=elbowEdgeStyle;elbow=vertical;curved=0;rounded=0;" edge="1" target="yub_xgJCxGsTC1WWabuT-28" parent="yub_xgJCxGsTC1WWabuT-5">
          <mxGeometry relative="1" as="geometry">
            <mxPoint x="-75" y="170" as="sourcePoint" />
          </mxGeometry>
        </mxCell>
        <mxCell id="yub_xgJCxGsTC1WWabuT-30" value="Kurz = kurz" style="html=1;verticalAlign=bottom;endArrow=open;dashed=1;endSize=8;edgeStyle=elbowEdgeStyle;elbow=vertical;curved=0;rounded=0;" edge="1" source="yub_xgJCxGsTC1WWabuT-28" parent="yub_xgJCxGsTC1WWabuT-5">
          <mxGeometry relative="1" as="geometry">
            <mxPoint x="-75" y="245" as="targetPoint" />
          </mxGeometry>
        </mxCell>
        <mxCell id="yub_xgJCxGsTC1WWabuT-6" value="" style="shape=umlLifeline;perimeter=lifelinePerimeter;whiteSpace=wrap;html=1;container=1;dropTarget=0;collapsible=0;recursiveResize=0;outlineConnect=0;portConstraint=eastwest;newEdgeStyle={&quot;edgeStyle&quot;:&quot;elbowEdgeStyle&quot;,&quot;elbow&quot;:&quot;vertical&quot;,&quot;curved&quot;:0,&quot;rounded&quot;:0};participant=umlEntity;" vertex="1" parent="1">
          <mxGeometry x="425" y="160" width="40" height="590" as="geometry" />
        </mxCell>
        <mxCell id="yub_xgJCxGsTC1WWabuT-23" value="" style="html=1;points=[];perimeter=orthogonalPerimeter;outlineConnect=0;targetShapes=umlLifeline;portConstraint=eastwest;newEdgeStyle={&quot;edgeStyle&quot;:&quot;elbowEdgeStyle&quot;,&quot;elbow&quot;:&quot;vertical&quot;,&quot;curved&quot;:0,&quot;rounded&quot;:0};" vertex="1" parent="yub_xgJCxGsTC1WWabuT-6">
          <mxGeometry x="15" y="120" width="10" height="230" as="geometry" />
        </mxCell>
        <mxCell id="yub_xgJCxGsTC1WWabuT-8" value="" style="shape=umlLifeline;perimeter=lifelinePerimeter;whiteSpace=wrap;html=1;container=1;dropTarget=0;collapsible=0;recursiveResize=0;outlineConnect=0;portConstraint=eastwest;newEdgeStyle={&quot;edgeStyle&quot;:&quot;elbowEdgeStyle&quot;,&quot;elbow&quot;:&quot;vertical&quot;,&quot;curved&quot;:0,&quot;rounded&quot;:0};participant=umlBoundary;" vertex="1" parent="1">
          <mxGeometry x="320" y="160" width="50" height="600" as="geometry" />
        </mxCell>
        <mxCell id="yub_xgJCxGsTC1WWabuT-16" value="" style="html=1;points=[];perimeter=orthogonalPerimeter;outlineConnect=0;targetShapes=umlLifeline;portConstraint=eastwest;newEdgeStyle={&quot;edgeStyle&quot;:&quot;elbowEdgeStyle&quot;,&quot;elbow&quot;:&quot;vertical&quot;,&quot;curved&quot;:0,&quot;rounded&quot;:0};" vertex="1" parent="yub_xgJCxGsTC1WWabuT-8">
          <mxGeometry x="20" y="80" width="10" height="310" as="geometry" />
        </mxCell>
        <mxCell id="yub_xgJCxGsTC1WWabuT-9" value="User" style="rounded=0;whiteSpace=wrap;html=1;" vertex="1" parent="1">
          <mxGeometry x="225" y="100" width="70" height="30" as="geometry" />
        </mxCell>
        <mxCell id="yub_xgJCxGsTC1WWabuT-10" value=":User Interface" style="rounded=0;whiteSpace=wrap;html=1;" vertex="1" parent="1">
          <mxGeometry x="310" y="100" width="70" height="30" as="geometry" />
        </mxCell>
        <mxCell id="yub_xgJCxGsTC1WWabuT-12" value=":Logic Interface" style="rounded=0;whiteSpace=wrap;html=1;" vertex="1" parent="1">
          <mxGeometry x="410" y="100" width="70" height="30" as="geometry" />
        </mxCell>
        <mxCell id="yub_xgJCxGsTC1WWabuT-13" value=":Exchange API" style="rounded=0;whiteSpace=wrap;html=1;" vertex="1" parent="1">
          <mxGeometry x="515" y="100" width="70" height="30" as="geometry" />
        </mxCell>
        <mxCell id="yub_xgJCxGsTC1WWabuT-20" value="Preved(EUR, 200)" style="html=1;verticalAlign=bottom;endArrow=block;edgeStyle=elbowEdgeStyle;elbow=vertical;curved=0;rounded=0;" edge="1" parent="1" source="yub_xgJCxGsTC1WWabuT-4">
          <mxGeometry y="10" width="80" relative="1" as="geometry">
            <mxPoint x="280" y="250" as="sourcePoint" />
            <mxPoint x="340" y="250" as="targetPoint" />
            <mxPoint as="offset" />
          </mxGeometry>
        </mxCell>
        <mxCell id="yub_xgJCxGsTC1WWabuT-25" value="Preved(EUR, 200)" style="html=1;verticalAlign=bottom;endArrow=block;edgeStyle=elbowEdgeStyle;elbow=vertical;curved=0;rounded=0;" edge="1" parent="1" target="yub_xgJCxGsTC1WWabuT-23">
          <mxGeometry width="80" relative="1" as="geometry">
            <mxPoint x="350" y="300" as="sourcePoint" />
            <mxPoint x="430" y="300" as="targetPoint" />
          </mxGeometry>
        </mxCell>
        <mxCell id="yub_xgJCxGsTC1WWabuT-31" value="Kurz * Vstup" style="html=1;verticalAlign=bottom;endArrow=open;dashed=1;endSize=8;edgeStyle=elbowEdgeStyle;elbow=vertical;curved=0;rounded=0;" edge="1" parent="1" target="yub_xgJCxGsTC1WWabuT-16">
          <mxGeometry x="0.2027" relative="1" as="geometry">
            <mxPoint x="440" y="454.58" as="sourcePoint" />
            <mxPoint x="360" y="454.58" as="targetPoint" />
            <Array as="points">
              <mxPoint x="410" y="490" />
            </Array>
            <mxPoint as="offset" />
          </mxGeometry>
        </mxCell>
        <mxCell id="yub_xgJCxGsTC1WWabuT-33" value="Vystup" style="html=1;verticalAlign=bottom;endArrow=open;dashed=1;endSize=8;edgeStyle=elbowEdgeStyle;elbow=vertical;curved=0;rounded=0;" edge="1" parent="1" target="yub_xgJCxGsTC1WWabuT-32">
          <mxGeometry relative="1" as="geometry">
            <mxPoint x="340" y="530" as="sourcePoint" />
            <mxPoint x="260" y="530" as="targetPoint" />
          </mxGeometry>
        </mxCell>
      </root>
    </mxGraphModel>
  </diagram>
</mxfile>
